<svg width="78" height="29" viewBox="0 0 78 29" fill="none" xmlns="http://www.w3.org/2000/svg">
<circle cx="2.03125" cy="2.03125" r="2.03125" fill="#C4DFE3"/>
<circle cx="2.03125" cy="10.1562" r="2.03125" fill="#C4DFE3"/>
<circle cx="41.8438" cy="2.03125" r="2.03125" fill="#C4DFE3"/>
<circle cx="41.8438" cy="10.1562" r="2.03125" fill="#C4DFE3"/>
<circle cx="2.03125" cy="18.2812" r="2.03125" fill="#C4DFE3"/>
<circle cx="2.03125" cy="26.4062" r="2.03125" fill="#C4DFE3"/>
<circle cx="41.8438" cy="18.2812" r="2.03125" fill="#C4DFE3"/>
<circle cx="41.8438" cy="26.4062" r="2.03125" fill="#C4DFE3"/>
<circle cx="7.71875" cy="2.03125" r="2.03125" fill="#C4DFE3"/>
<circle cx="7.71875" cy="10.1562" r="2.03125" fill="#C4DFE3"/>
<circle cx="47.5312" cy="2.03125" r="2.03125" fill="#C4DFE3"/>
<circle cx="47.5312" cy="10.1562" r="2.03125" fill="#C4DFE3"/>
<circle cx="7.71875" cy="18.2812" r="2.03125" fill="#C4DFE3"/>
<circle cx="7.71875" cy="26.4062" r="2.03125" fill="#C4DFE3"/>
<circle cx="47.5312" cy="18.2812" r="2.03125" fill="#C4DFE3"/>
<circle cx="47.5312" cy="26.4062" r="2.03125" fill="#C4DFE3"/>
<circle cx="13.4062" cy="2.03125" r="2.03125" fill="#C4DFE3"/>
<circle cx="13.4062" cy="10.1562" r="2.03125" fill="#C4DFE3"/>
<circle cx="53.2188" cy="2.03125" r="2.03125" fill="#C4DFE3"/>
<circle cx="53.2188" cy="10.1562" r="2.03125" fill="#C4DFE3"/>
<circle cx="13.4062" cy="18.2812" r="2.03125" fill="#C4DFE3"/>
<circle cx="13.4062" cy="26.4062" r="2.03125" fill="#C4DFE3"/>
<circle cx="53.2188" cy="18.2812" r="2.03125" fill="#C4DFE3"/>
<circle cx="53.2188" cy="26.4062" r="2.03125" fill="#C4DFE3"/>
<circle cx="19.0938" cy="2.03125" r="2.03125" fill="#C4DFE3"/>
<circle cx="19.0938" cy="10.1562" r="2.03125" fill="#C4DFE3"/>
<circle cx="58.9062" cy="2.03125" r="2.03125" fill="#C4DFE3"/>
<circle cx="58.9062" cy="10.1562" r="2.03125" fill="#C4DFE3"/>
<circle cx="19.0938" cy="18.2812" r="2.03125" fill="#C4DFE3"/>
<circle cx="19.0938" cy="26.4062" r="2.03125" fill="#C4DFE3"/>
<circle cx="58.9062" cy="18.2812" r="2.03125" fill="#C4DFE3"/>
<circle cx="58.9062" cy="26.4062" r="2.03125" fill="#C4DFE3"/>
<circle cx="24.7812" cy="2.03125" r="2.03125" fill="#C4DFE3"/>
<circle cx="24.7812" cy="10.1562" r="2.03125" fill="#C4DFE3"/>
<circle cx="64.5938" cy="2.03125" r="2.03125" fill="#C4DFE3"/>
<circle cx="64.5938" cy="10.1562" r="2.03125" fill="#C4DFE3"/>
<circle cx="24.7812" cy="18.2812" r="2.03125" fill="#C4DFE3"/>
<circle cx="24.7812" cy="26.4062" r="2.03125" fill="#C4DFE3"/>
<circle cx="64.5938" cy="18.2812" r="2.03125" fill="#C4DFE3"/>
<circle cx="64.5938" cy="26.4062" r="2.03125" fill="#C4DFE3"/>
<circle cx="30.4688" cy="2.03125" r="2.03125" fill="#C4DFE3"/>
<circle cx="30.4688" cy="10.1562" r="2.03125" fill="#C4DFE3"/>
<circle cx="70.2812" cy="2.03125" r="2.03125" fill="#C4DFE3"/>
<circle cx="70.2812" cy="10.1562" r="2.03125" fill="#C4DFE3"/>
<circle cx="30.4688" cy="18.2812" r="2.03125" fill="#C4DFE3"/>
<circle cx="30.4688" cy="26.4062" r="2.03125" fill="#C4DFE3"/>
<circle cx="70.2812" cy="18.2812" r="2.03125" fill="#C4DFE3"/>
<circle cx="70.2812" cy="26.4062" r="2.03125" fill="#C4DFE3"/>
<circle cx="36.1562" cy="2.03125" r="2.03125" fill="#C4DFE3"/>
<circle cx="36.1562" cy="10.1562" r="2.03125" fill="#C4DFE3"/>
<circle cx="75.9688" cy="2.03125" r="2.03125" fill="#C4DFE3"/>
<circle cx="75.9688" cy="10.1562" r="2.03125" fill="#C4DFE3"/>
<circle cx="36.1562" cy="18.2812" r="2.03125" fill="#C4DFE3"/>
<circle cx="36.1562" cy="26.4062" r="2.03125" fill="#C4DFE3"/>
<circle cx="75.9688" cy="18.2812" r="2.03125" fill="#C4DFE3"/>
<circle cx="75.9688" cy="26.4062" r="2.03125" fill="#C4DFE3"/>
</svg>
