<svg width="175" height="64" viewBox="0 0 175 64" fill="none" xmlns="http://www.w3.org/2000/svg">
<circle cx="5.1443" cy="4.90822" r="4.52931" fill="#C4DFE3"/>
<circle cx="5.1443" cy="23.0256" r="4.52931" fill="#C4DFE3"/>
<circle cx="93.9187" cy="4.90846" r="4.52931" fill="#C4DFE3"/>
<circle cx="93.9187" cy="23.0256" r="4.52931" fill="#C4DFE3"/>
<circle cx="5.1443" cy="41.1428" r="4.52931" fill="#C4DFE3"/>
<circle cx="5.1443" cy="59.2603" r="4.52931" fill="#C4DFE3"/>
<circle cx="93.9187" cy="41.1428" r="4.52931" fill="#C4DFE3"/>
<circle cx="93.9187" cy="59.2603" r="4.52931" fill="#C4DFE3"/>
<circle cx="17.8263" cy="4.90846" r="4.52931" fill="#C4DFE3"/>
<circle cx="17.8263" cy="23.0256" r="4.52931" fill="#C4DFE3"/>
<circle cx="106.601" cy="4.90846" r="4.52931" fill="#C4DFE3"/>
<circle cx="106.601" cy="23.0256" r="4.52931" fill="#C4DFE3"/>
<circle cx="17.8263" cy="41.1428" r="4.52931" fill="#C4DFE3"/>
<circle cx="17.8263" cy="59.2603" r="4.52931" fill="#C4DFE3"/>
<circle cx="106.601" cy="41.1428" r="4.52931" fill="#C4DFE3"/>
<circle cx="106.601" cy="59.2603" r="4.52931" fill="#C4DFE3"/>
<circle cx="30.5084" cy="4.90846" r="4.52931" fill="#C4DFE3"/>
<circle cx="30.5084" cy="23.0256" r="4.52931" fill="#C4DFE3"/>
<circle cx="119.283" cy="4.90846" r="4.52931" fill="#C4DFE3"/>
<circle cx="119.283" cy="23.0256" r="4.52931" fill="#C4DFE3"/>
<circle cx="30.5084" cy="41.1428" r="4.52931" fill="#C4DFE3"/>
<circle cx="30.5084" cy="59.2603" r="4.52931" fill="#C4DFE3"/>
<circle cx="119.283" cy="41.1428" r="4.52931" fill="#C4DFE3"/>
<circle cx="119.283" cy="59.2603" r="4.52931" fill="#C4DFE3"/>
<circle cx="43.1904" cy="4.90846" r="4.52931" fill="#C4DFE3"/>
<circle cx="43.1904" cy="23.0256" r="4.52931" fill="#C4DFE3"/>
<circle cx="131.965" cy="4.90846" r="4.52931" fill="#C4DFE3"/>
<circle cx="131.965" cy="23.0256" r="4.52931" fill="#C4DFE3"/>
<circle cx="43.1904" cy="41.1428" r="4.52931" fill="#C4DFE3"/>
<circle cx="43.1904" cy="59.2603" r="4.52931" fill="#C4DFE3"/>
<circle cx="131.965" cy="41.1428" r="4.52931" fill="#C4DFE3"/>
<circle cx="131.965" cy="59.2603" r="4.52931" fill="#C4DFE3"/>
<circle cx="55.8726" cy="4.90846" r="4.52931" fill="#C4DFE3"/>
<circle cx="55.8726" cy="23.0256" r="4.52931" fill="#C4DFE3"/>
<circle cx="144.647" cy="4.90846" r="4.52931" fill="#C4DFE3"/>
<circle cx="144.647" cy="23.0256" r="4.52931" fill="#C4DFE3"/>
<circle cx="55.8726" cy="41.1428" r="4.52931" fill="#C4DFE3"/>
<circle cx="55.8726" cy="59.2603" r="4.52931" fill="#C4DFE3"/>
<circle cx="144.647" cy="41.1428" r="4.52931" fill="#C4DFE3"/>
<circle cx="144.647" cy="59.2603" r="4.52931" fill="#C4DFE3"/>
<circle cx="68.5546" cy="4.90846" r="4.52931" fill="#C4DFE3"/>
<circle cx="68.5546" cy="23.0256" r="4.52931" fill="#C4DFE3"/>
<circle cx="157.329" cy="4.90846" r="4.52931" fill="#C4DFE3"/>
<circle cx="157.329" cy="23.0256" r="4.52931" fill="#C4DFE3"/>
<circle cx="68.5546" cy="41.1428" r="4.52931" fill="#C4DFE3"/>
<circle cx="68.5546" cy="59.2603" r="4.52931" fill="#C4DFE3"/>
<circle cx="157.329" cy="41.1428" r="4.52931" fill="#C4DFE3"/>
<circle cx="157.329" cy="59.2603" r="4.52931" fill="#C4DFE3"/>
<circle cx="81.2366" cy="4.90846" r="4.52931" fill="#C4DFE3"/>
<circle cx="81.2366" cy="23.0256" r="4.52931" fill="#C4DFE3"/>
<circle cx="170.011" cy="4.90846" r="4.52931" fill="#C4DFE3"/>
<circle cx="170.011" cy="23.0256" r="4.52931" fill="#C4DFE3"/>
<circle cx="81.2366" cy="41.1428" r="4.52931" fill="#C4DFE3"/>
<circle cx="81.2366" cy="59.2603" r="4.52931" fill="#C4DFE3"/>
<circle cx="170.011" cy="41.1428" r="4.52931" fill="#C4DFE3"/>
<circle cx="170.011" cy="59.2603" r="4.52931" fill="#C4DFE3"/>
</svg>
