<svg width="62" height="61" viewBox="0 0 62 61" fill="none" xmlns="http://www.w3.org/2000/svg">
<path d="M54.9139 27.8617C56.1384 29.4375 56.1384 31.5649 54.9139 33.1382C51.0569 38.0919 41.8034 48.2916 30.9999 48.2916C20.1964 48.2916 10.9429 38.0919 7.08603 33.1382C6.49027 32.3836 6.16687 31.4554 6.16687 30.4999C6.16687 29.5445 6.49027 28.6162 7.08603 27.8617C10.9429 22.908 20.1964 12.7083 30.9999 12.7083C41.8034 12.7083 51.0569 22.908 54.9139 27.8617V27.8617Z" stroke="#D75CB1" stroke-width="3.33333" stroke-linecap="round" stroke-linejoin="round"/>
<path d="M31.738 37.7618C31.6257 37.6584 35.4284 34.5106 35.4284 30.4999C35.4284 26.4893 31.738 23.238 31.738 23.238C31.738 23.238 28.0475 26.4893 28.0475 30.4999C28.0475 34.5106 31.738 37.7618 31.738 37.7618Z" stroke="#D75CB1" stroke-width="3.33333" stroke-linecap="round" stroke-linejoin="round"/>
</svg>
