<svg width="54" height="55" viewBox="0 0 54 55" fill="none" xmlns="http://www.w3.org/2000/svg">
<path d="M38.8125 34.3751C37.5493 34.3816 36.3038 34.6768 35.1676 35.239C34.0315 35.8013 33.0338 36.6161 32.2481 37.6235L19.9125 29.7689C20.3621 28.291 20.3621 26.7092 19.9125 25.2314L32.2481 17.3767C33.5001 18.9557 35.2605 20.0324 37.2173 20.4161C39.1742 20.7998 41.2012 20.4657 42.9393 19.4729C44.6774 18.4801 46.0144 16.8928 46.7135 14.9922C47.4126 13.0915 47.4287 11.0001 46.7588 9.08857C46.089 7.17701 44.7765 5.56862 43.0538 4.54831C41.3311 3.52801 39.3095 3.16166 37.347 3.51415C35.3845 3.86664 33.6078 4.91523 32.3317 6.47416C31.0556 8.03308 30.3624 10.0017 30.375 12.0314C30.3829 12.7999 30.4965 13.5636 30.7125 14.3001L18.3768 22.1548C17.2878 20.7585 15.7993 19.7418 14.1175 19.2456C12.4358 18.7495 10.6442 18.7985 8.99099 19.3859C7.33784 19.9733 5.90502 21.0699 4.89117 22.5238C3.87732 23.9777 3.33264 25.7168 3.33264 27.5001C3.33264 29.2834 3.87732 31.0225 4.89117 32.4764C5.90502 33.9303 7.33784 35.0269 8.99099 35.6143C10.6442 36.2017 12.4358 36.2507 14.1175 35.7546C15.7993 35.2585 17.2878 34.2418 18.3768 32.8454L30.7125 40.7001C30.4965 41.4366 30.3829 42.2003 30.375 42.9689C30.375 44.6685 30.8698 46.3301 31.7969 47.7433C32.7241 49.1565 34.0418 50.258 35.5836 50.9084C37.1253 51.5589 38.8218 51.7291 40.4585 51.3975C42.0953 51.0659 43.5987 50.2474 44.7787 49.0456C45.9587 47.8437 46.7623 46.3124 47.0878 44.6454C47.4134 42.9784 47.2463 41.2505 46.6077 39.6802C45.9691 38.1099 44.8876 36.7677 43.5001 35.8234C42.1126 34.8791 40.4813 34.3751 38.8125 34.3751ZM38.8125 6.87511C39.8137 6.87511 40.7925 7.17752 41.625 7.74409C42.4576 8.31067 43.1064 9.11596 43.4896 10.0581C43.8728 11.0003 43.973 12.0371 43.7777 13.0373C43.5824 14.0375 43.1002 14.9563 42.3922 15.6774C41.6842 16.3985 40.7821 16.8896 39.8001 17.0885C38.8181 17.2875 37.8002 17.1854 36.8751 16.7951C35.9501 16.4048 35.1594 15.744 34.6032 14.896C34.0469 14.0481 33.75 13.0512 33.75 12.0314C33.75 10.6638 34.2833 9.35232 35.2327 8.38534C36.1821 7.41835 37.4698 6.87511 38.8125 6.87511ZM11.8125 32.6564C10.8112 32.6564 9.83242 32.3539 8.9999 31.7874C8.16738 31.2208 7.5185 30.4155 7.13533 29.4733C6.75217 28.5311 6.65191 27.4944 6.84725 26.4942C7.04259 25.494 7.52474 24.5752 8.23275 23.8541C8.94075 23.133 9.8428 22.6419 10.8248 22.4429C11.8069 22.244 12.8248 22.3461 13.7498 22.7364C14.6749 23.1266 15.4655 23.7875 16.0218 24.6354C16.5781 25.4834 16.875 26.4803 16.875 27.5001C16.875 28.8676 16.3416 30.1791 15.3922 31.1461C14.4428 32.1131 13.1551 32.6564 11.8125 32.6564ZM38.8125 48.1251C37.8112 48.1251 36.8324 47.8227 35.9999 47.2561C35.1674 46.6895 34.5185 45.8843 34.1353 44.9421C33.7522 43.9999 33.6519 42.9631 33.8472 41.9629C34.0426 40.9627 34.5247 40.044 35.2327 39.3228C35.9407 38.6017 36.8428 38.1106 37.8248 37.9117C38.8069 37.7127 39.8248 37.8148 40.7498 38.2051C41.6749 38.5954 42.4655 39.2563 43.0218 40.1042C43.5781 40.9521 43.875 41.949 43.875 42.9689C43.875 44.3364 43.3416 45.6479 42.3922 46.6149C41.4428 47.5819 40.1551 48.1251 38.8125 48.1251Z" fill="#855EC3"/>
</svg>
