<svg width="42" height="42" viewBox="0 0 42 42" fill="none" xmlns="http://www.w3.org/2000/svg">
<path d="M30.1875 26.25C29.205 26.2549 28.2362 26.4804 27.3526 26.9097C26.4689 27.3391 25.6929 27.9613 25.0818 28.7306L15.4875 22.7325C15.8371 21.604 15.8371 20.396 15.4875 19.2675L25.0818 13.2694C26.0556 14.4752 27.4248 15.2974 28.9468 15.5904C30.4688 15.8834 32.0453 15.6282 33.3972 14.8701C34.7491 14.112 35.789 12.8999 36.3327 11.4485C36.8765 9.99705 36.889 8.40001 36.368 6.94027C35.847 5.48053 34.8261 4.25231 33.4863 3.47317C32.1464 2.69403 30.574 2.41427 29.0476 2.68345C27.5213 2.95262 26.1394 3.75336 25.1469 4.94381C24.1544 6.13427 23.6152 7.63759 23.625 9.18749C23.6312 9.77442 23.7195 10.3576 23.8875 10.92L14.2931 16.9181C13.4461 15.8518 12.2883 15.0754 10.9803 14.6966C9.67226 14.3177 8.27877 14.3552 6.99298 14.8037C5.70719 15.2522 4.59278 16.0897 3.80423 17.1999C3.01568 18.3102 2.59204 19.6382 2.59204 21C2.59204 22.3618 3.01568 23.6898 3.80423 24.8001C4.59278 25.9103 5.70719 26.7477 6.99298 27.1963C8.27877 27.6448 9.67226 27.6823 10.9803 27.3034C12.2883 26.9246 13.4461 26.1482 14.2931 25.0819L23.8875 31.08C23.7195 31.6424 23.6312 32.2256 23.625 32.8125C23.625 34.1104 24.0098 35.3792 24.7309 36.4584C25.452 37.5376 26.477 38.3788 27.6761 38.8755C28.8752 39.3722 30.1947 39.5021 31.4677 39.2489C32.7407 38.9957 33.9101 38.3707 34.8279 37.4529C35.7456 36.5351 36.3707 35.3658 36.6239 34.0928C36.8771 32.8198 36.7471 31.5003 36.2504 30.3011C35.7537 29.102 34.9126 28.0771 33.8334 27.356C32.7542 26.6349 31.4854 26.25 30.1875 26.25ZM30.1875 5.24999C30.9662 5.24999 31.7275 5.48092 32.375 5.91358C33.0225 6.34624 33.5272 6.96119 33.8252 7.68068C34.1233 8.40016 34.2012 9.19186 34.0493 9.95566C33.8974 10.7195 33.5224 11.4211 32.9717 11.9717C32.421 12.5224 31.7194 12.8974 30.9556 13.0493C30.1918 13.2013 29.4001 13.1233 28.6806 12.8253C27.9612 12.5272 27.3462 12.0226 26.9136 11.3751C26.4809 10.7275 26.25 9.96626 26.25 9.18749C26.25 8.1432 26.6648 7.14169 27.4032 6.40326C28.1417 5.66484 29.1432 5.24999 30.1875 5.24999ZM9.18747 24.9375C8.4087 24.9375 7.64743 24.7066 6.99991 24.2739C6.35239 23.8412 5.84771 23.2263 5.54969 22.5068C5.25167 21.7873 5.1737 20.9956 5.32562 20.2318C5.47755 19.468 5.85256 18.7664 6.40323 18.2158C6.9539 17.6651 7.6555 17.2901 8.4193 17.1382C9.1831 16.9862 9.9748 17.0642 10.6943 17.3622C11.4138 17.6602 12.0287 18.1649 12.4614 18.8124C12.894 19.46 13.125 20.2212 13.125 21C13.125 22.0443 12.7101 23.0458 11.9717 23.7842C11.2333 24.5227 10.2318 24.9375 9.18747 24.9375ZM30.1875 36.75C29.4087 36.75 28.6474 36.5191 27.9999 36.0864C27.3524 35.6537 26.8477 35.0388 26.5497 34.3193C26.2517 33.5998 26.1737 32.8081 26.3256 32.0443C26.4776 31.2805 26.8526 30.5789 27.4032 30.0283C27.9539 29.4776 28.6555 29.1026 29.4193 28.9507C30.1831 28.7987 30.9748 28.8767 31.6943 29.1747C32.4138 29.4727 33.0287 29.9774 33.4614 30.6249C33.894 31.2725 34.125 32.0337 34.125 32.8125C34.125 33.8568 33.7101 34.8583 32.9717 35.5967C32.2333 36.3352 31.2318 36.75 30.1875 36.75Z" fill="#855EC3"/>
</svg>
