<svg width="64" height="65" viewBox="0 0 64 65" fill="none" xmlns="http://www.w3.org/2000/svg">
<path d="M25 10.1562C22.86 10.1562 20.996 11.3913 19.812 13.0772C18.628 14.7631 18 16.9406 18 19.2969C18 21.6531 18.628 23.8327 19.812 25.5186C20.996 27.2045 22.86 28.4375 25 28.4375C27.14 28.4375 29.004 27.2025 30.188 25.5166C31.372 23.8306 32 21.6531 32 19.2969C32 16.9406 31.372 14.7611 30.188 13.0752C29.004 11.3892 27.14 10.1562 25 10.1562ZM32 19.2969C32 21.6531 32.628 23.8327 33.812 25.5186C34.996 27.2045 36.862 28.4375 39 28.4375C41.14 28.4375 43.004 27.2025 44.188 25.5166C45.372 23.8306 46 21.6531 46 19.2969C46 16.9406 45.372 14.7611 44.188 13.0752C43.004 11.3892 41.14 10.1562 39 10.1562C36.86 10.1562 34.996 11.3913 33.812 13.0772C32.628 14.7631 32 16.9406 32 19.2969ZM25 14.2188C25.624 14.2188 26.312 14.5356 26.94 15.4253C27.56 16.313 28 17.7267 28 19.2969C28 20.867 27.56 22.2828 26.94 23.1684C26.312 24.0581 25.624 24.375 25 24.375C24.376 24.375 23.688 24.0581 23.06 23.1684C22.44 22.2808 22 20.867 22 19.2969C22 17.7267 22.44 16.3109 23.06 15.4253C23.688 14.5356 24.376 14.2188 25 14.2188ZM39 14.2188C39.624 14.2188 40.312 14.5356 40.94 15.4253C41.56 16.313 42 17.7267 42 19.2969C42 20.867 41.56 22.2828 40.94 23.1684C40.312 24.0581 39.624 24.375 39 24.375C38.376 24.375 37.688 24.0581 37.06 23.1684C36.44 22.2808 36 20.867 36 19.2969C36 17.7267 36.44 16.3109 37.06 15.4253C37.688 14.5356 38.376 14.2188 39 14.2188ZM15 24.375C12.86 24.375 10.996 25.61 9.812 27.2959C8.628 28.9819 8 31.1594 8 33.5156C8 35.8719 8.628 38.0514 9.812 39.7373C10.996 41.4233 12.86 42.6562 15 42.6562C17.14 42.6562 19.004 41.4213 20.188 39.7353C21.372 38.0494 22 35.8719 22 33.5156C22 31.1594 21.372 28.9798 20.188 27.2939C19.004 25.608 17.14 24.375 15 24.375ZM49 24.375C46.86 24.375 44.996 25.61 43.812 27.2959C42.628 28.9819 42 31.1594 42 33.5156C42 35.8719 42.628 38.0514 43.812 39.7373C44.996 41.4233 46.86 42.6562 49 42.6562C51.14 42.6562 53.004 41.4213 54.188 39.7353C55.372 38.0494 56 35.8719 56 33.5156C56 31.1594 55.372 28.9798 54.188 27.2939C53.004 25.608 51.14 24.375 49 24.375ZM15 28.4375C15.624 28.4375 16.312 28.7544 16.94 29.6441C17.56 30.5317 18 31.9455 18 33.5156C18 35.0858 17.56 36.5016 16.94 37.3872C16.312 38.2769 15.624 38.5938 15 38.5938C14.376 38.5938 13.688 38.2769 13.06 37.3872C12.44 36.5016 12 35.0858 12 33.5156C12 31.9455 12.44 30.5297 13.06 29.6441C13.688 28.7544 14.376 28.4375 15 28.4375ZM49 28.4375C49.624 28.4375 50.312 28.7544 50.94 29.6441C51.56 30.5317 52 31.9455 52 33.5156C52 35.0858 51.56 36.5016 50.94 37.3872C50.312 38.2769 49.624 38.5938 49 38.5938C48.376 38.5938 47.688 38.2769 47.06 37.3872C46.44 36.4995 46 35.0858 46 33.5156C46 31.9455 46.44 30.5297 47.06 29.6441C47.688 28.7544 48.376 28.4375 49 28.4375ZM32 32.5C29.334 32.5 27.474 34.257 26.56 35.8008C25.652 37.3445 25.092 38.6283 24.56 39.1645C24.254 39.4834 22.324 40.2208 20.312 41.2628C19.306 41.7848 18.292 42.4816 17.438 43.548C16.578 44.6144 15.998 46.087 15.998 47.7384C15.998 51.6384 19.158 54.8478 22.998 54.8478C24.73 54.8478 26.538 54.2791 28.308 53.7713C30.086 53.2513 32 52.8125 32 52.8125C32 52.8125 33.914 53.2512 35.688 53.7672C37.46 54.275 39.268 54.8438 41 54.8438C44.84 54.8438 48 51.6344 48 47.7344C48 46.1216 47.414 44.6469 46.56 43.6109C45.71 42.5689 44.686 41.925 43.688 41.3867C41.688 40.3102 39.722 39.457 39.438 39.1645C38.958 38.6831 38.418 37.3567 37.498 35.8048C36.58 34.2469 34.68 32.5 32 32.5ZM32 36.5625C33.32 36.5625 33.466 36.8875 34.06 37.895C34.66 38.9005 35.108 40.6087 36.56 42.0855C38.21 43.7511 40.294 44.1167 41.812 44.9373C42.572 45.3477 43.152 45.7844 43.5 46.2069C43.846 46.6273 44 47.0112 44 47.7303C44 49.4366 42.68 50.7772 41 50.7772C40.42 50.7772 38.552 50.3303 36.812 49.8225C35.072 49.3208 33.632 48.7459 32 48.7459C30.368 48.7459 28.928 49.3208 27.188 49.8225C25.448 50.3303 23.58 50.7772 23 50.7772C21.32 50.7772 20 49.4366 20 47.7303C20 46.9117 20.168 46.4912 20.5 46.0769C20.832 45.6645 21.444 45.2562 22.188 44.8723C23.676 44.1005 25.748 43.7958 27.438 42.0794C28.904 40.5823 29.344 38.8192 29.938 37.8239C30.522 36.8286 30.662 36.5544 31.998 36.5544L32 36.5625Z" fill="#FF9770"/>
</svg>
