<svg width="17" height="19" viewBox="0 0 17 19" fill="none" xmlns="http://www.w3.org/2000/svg">
<g clip-path="url(#clip0_72_767)">
<path d="M8.31619 5.23232C5.95603 5.23232 4.05232 7.13603 4.05232 9.49619C4.05232 11.8563 5.95603 13.7601 8.31619 13.7601C10.6763 13.7601 12.5801 11.8563 12.5801 9.49619C12.5801 7.13603 10.6763 5.23232 8.31619 5.23232ZM8.31619 12.2683C6.79099 12.2683 5.54412 11.0251 5.54412 9.49619C5.54412 7.96729 6.78728 6.72412 8.31619 6.72412C9.84509 6.72412 11.0883 7.96729 11.0883 9.49619C11.0883 11.0251 9.84138 12.2683 8.31619 12.2683ZM13.749 5.05791C13.749 5.61084 13.3037 6.05244 12.7545 6.05244C12.2015 6.05244 11.7599 5.60713 11.7599 5.05791C11.7599 4.50869 12.2052 4.06338 12.7545 4.06338C13.3037 4.06338 13.749 4.50869 13.749 5.05791ZM16.573 6.06729C16.5099 4.73506 16.2056 3.55498 15.2297 2.58271C14.2574 1.61045 13.0773 1.30615 11.7451 1.23936C10.372 1.16143 6.25662 1.16143 4.88357 1.23936C3.55505 1.30244 2.37498 1.60674 1.399 2.579C0.423023 3.55127 0.122437 4.73135 0.0556396 6.06357C-0.02229 7.43662 -0.02229 11.552 0.0556396 12.9251C0.118726 14.2573 0.423023 15.4374 1.399 16.4097C2.37498 17.3819 3.55134 17.6862 4.88357 17.753C6.25662 17.831 10.372 17.831 11.7451 17.753C13.0773 17.6899 14.2574 17.3856 15.2297 16.4097C16.2019 15.4374 16.5062 14.2573 16.573 12.9251C16.651 11.552 16.651 7.44033 16.573 6.06729ZM14.7992 14.3983C14.5097 15.1257 13.9494 15.686 13.2183 15.9792C12.1236 16.4134 9.52595 16.3132 8.31619 16.3132C7.10642 16.3132 4.50505 16.4097 3.41404 15.9792C2.68669 15.6897 2.12634 15.1294 1.83318 14.3983C1.399 13.3036 1.49919 10.706 1.49919 9.49619C1.49919 8.28643 1.40271 5.68506 1.83318 4.59404C2.12263 3.8667 2.68298 3.30635 3.41404 3.01318C4.50876 2.579 7.10642 2.6792 8.31619 2.6792C9.52595 2.6792 12.1273 2.58271 13.2183 3.01318C13.9457 3.30264 14.506 3.86299 14.7992 4.59404C15.2334 5.68877 15.1332 8.28643 15.1332 9.49619C15.1332 10.706 15.2334 13.3073 14.7992 14.3983Z" fill="white"/>
</g>
<defs>
<clipPath id="clip0_72_767">
<rect width="16.625" height="19" fill="white"/>
</clipPath>
</defs>
</svg>
