<svg width="67" height="67" viewBox="0 0 67 67" fill="none" xmlns="http://www.w3.org/2000/svg">
<path d="M20.9375 8.375C20.9375 10.7137 19.0887 12.5625 16.75 12.5625H14.6562C10.05 12.5625 6.28125 16.3312 6.28125 20.9375C6.28125 25.5438 10.05 29.3125 14.6562 29.3125H17.0766C16.8599 30.3453 16.7505 31.3978 16.75 32.4531V58.625H20.9375V32.4531C20.9375 26.107 26.107 20.9375 32.4531 20.9375C34.3417 20.9375 36.1172 21.3709 37.6875 22.1812V17.6671C36.0079 17.0645 34.2375 16.7543 32.4531 16.75C26.4503 16.75 21.2243 20.1607 18.582 25.125H14.6562C12.3175 25.125 10.4688 23.2762 10.4688 20.9375C10.4688 18.5988 12.3175 16.75 14.6562 16.75H16.75C21.3562 16.75 25.125 12.9813 25.125 8.375H20.9375ZM39.7812 12.7593V26.1719C39.7812 31.5109 44.6304 35.5938 50.25 35.5938C55.8696 35.5938 60.7188 31.5109 60.7188 26.1719V12.7593L57.4462 15.0478L53.979 17.4703C52.7855 17.0452 51.6068 16.5532 50.25 16.5532C48.8932 16.5532 47.7166 17.0452 46.521 17.4703L43.0517 15.0499L39.7812 12.7593ZM50.25 20.7407C51.4602 20.7407 52.5741 21.0338 53.5225 21.5258L54.6322 22.1142L55.6791 21.396L56.5312 20.8077V26.1719C56.5312 28.9272 53.8806 31.4062 50.25 31.4062C46.6194 31.4062 43.9688 28.9272 43.9688 26.1719V20.8056L44.8188 21.396L45.8657 22.1163L46.9796 21.5258C47.9911 21.0061 49.1127 20.7369 50.25 20.7407ZM35.5938 31.4062C29.8192 31.4062 25.125 36.1004 25.125 41.875V58.625H29.3125V41.875C29.3125 38.4161 32.1349 35.5938 35.5938 35.5938C39.0526 35.5938 41.875 38.4161 41.875 41.875V58.625H46.0625V41.875C46.0625 39.8545 45.4909 37.9806 44.4922 36.3789C42.5133 35.4438 40.8193 33.9984 39.5844 32.1914C38.3184 31.6711 36.9625 31.4043 35.5938 31.4062ZM54.4375 37.0343C53.0845 37.4701 51.6714 37.6906 50.25 37.6875V58.625H54.4375V37.0343Z" fill="#FFD700"/>
</svg>
