<svg width="33" height="33" viewBox="0 0 33 33" fill="none" xmlns="http://www.w3.org/2000/svg">
<g clip-path="url(#clip0_72_766)">
<path d="M16.3162 12.2323C13.956 12.2323 12.0523 14.136 12.0523 16.4962C12.0523 18.8563 13.956 20.7601 16.3162 20.7601C18.6763 20.7601 20.5801 18.8563 20.5801 16.4962C20.5801 14.136 18.6763 12.2323 16.3162 12.2323ZM16.3162 19.2683C14.791 19.2683 13.5441 18.0251 13.5441 16.4962C13.5441 14.9673 14.7873 13.7241 16.3162 13.7241C17.8451 13.7241 19.0883 14.9673 19.0883 16.4962C19.0883 18.0251 17.8414 19.2683 16.3162 19.2683ZM21.749 12.0579C21.749 12.6108 21.3037 13.0524 20.7545 13.0524C20.2015 13.0524 19.7599 12.6071 19.7599 12.0579C19.7599 11.5087 20.2052 11.0634 20.7545 11.0634C21.3037 11.0634 21.749 11.5087 21.749 12.0579ZM24.573 13.0673C24.5099 11.7351 24.2056 10.555 23.2297 9.58271C22.2574 8.61045 21.0773 8.30615 19.7451 8.23936C18.372 8.16143 14.2566 8.16143 12.8836 8.23936C11.5551 8.30244 10.375 8.60674 9.399 9.579C8.42302 10.5513 8.12244 11.7313 8.05564 13.0636C7.97771 14.4366 7.97771 18.552 8.05564 19.9251C8.11873 21.2573 8.42302 22.4374 9.399 23.4097C10.375 24.3819 11.5513 24.6862 12.8836 24.753C14.2566 24.831 18.372 24.831 19.7451 24.753C21.0773 24.6899 22.2574 24.3856 23.2297 23.4097C24.2019 22.4374 24.5062 21.2573 24.573 19.9251C24.651 18.552 24.651 14.4403 24.573 13.0673ZM22.7992 21.3983C22.5097 22.1257 21.9494 22.686 21.2183 22.9792C20.1236 23.4134 17.526 23.3132 16.3162 23.3132C15.1064 23.3132 12.5051 23.4097 11.414 22.9792C10.6867 22.6897 10.1263 22.1294 9.83318 21.3983C9.399 20.3036 9.49919 17.706 9.49919 16.4962C9.49919 15.2864 9.40271 12.6851 9.83318 11.594C10.1226 10.8667 10.683 10.3063 11.414 10.0132C12.5088 9.579 15.1064 9.6792 16.3162 9.6792C17.526 9.6792 20.1273 9.58271 21.2183 10.0132C21.9457 10.3026 22.506 10.863 22.7992 11.594C23.2334 12.6888 23.1332 15.2864 23.1332 16.4962C23.1332 17.706 23.2334 20.3073 22.7992 21.3983Z" fill="white"/>
</g>
<circle cx="16.5" cy="16.5" r="16" stroke="white"/>
<defs>
<clipPath id="clip0_72_766">
<rect width="16.625" height="19" fill="white" transform="translate(8 7)"/>
</clipPath>
</defs>
</svg>
