<svg width="159" height="49" viewBox="0 0 159 49" fill="none" xmlns="http://www.w3.org/2000/svg">
<g clip-path="url(#clip0_78_581)">
<path d="M4.91665 13.01C3.86653 13.4212 3.92195 17.0106 4.64666 17.631C5.10422 18.0188 7.79986 16.977 8.10538 16.2731C8.41089 15.5693 5.98808 12.5842 4.91665 13.01Z" fill="black"/>
<path d="M29.3338 5.50482C28.2126 5.75358 27.7707 9.61957 28.4073 10.0337C29.0439 10.4478 31.8461 9.80394 32.0209 9.21863C32.3051 8.28798 30.4308 5.25752 29.3338 5.50628V5.50482Z" fill="black"/>
<path d="M42.9355 20.1377C43.0167 20.1017 43.0902 20.0496 43.1517 19.9842C43.2133 19.9189 43.2617 19.8417 43.2942 19.757C43.3266 19.6724 43.3425 19.582 43.3409 19.491C43.3394 19.4 43.3203 19.3102 43.2849 19.2268C43.2495 19.1434 43.1985 19.068 43.1347 19.005C43.0709 18.9419 42.9957 18.8925 42.9133 18.8596C42.8309 18.8266 42.743 18.8107 42.6546 18.8128C42.5663 18.815 42.4792 18.8351 42.3984 18.872L41.5316 19.2627C40.7333 16.6742 39.7099 14.1652 38.4736 11.7663C35.6799 6.26727 32.2425 1.79109 29.9248 0.623392C29.6025 0.450475 29.2438 0.36214 28.8804 0.366224C28.517 0.370308 28.1602 0.466685 27.8416 0.646804C26.5102 1.37845 25.4046 3.53825 24.4639 7.24328C23.958 9.21871 23.6554 11.0829 23.5317 11.9068L13.1755 15.0894C12.6341 14.4704 11.3921 13.092 9.90718 11.7151C7.14902 9.14701 5.07578 7.96614 3.57093 8.10515C3.20869 8.13451 2.85906 8.25535 2.55297 8.45698C2.24688 8.6586 1.99376 8.9348 1.816 9.26115C0.502992 11.5483 0.0113255 17.2316 0.603883 23.4125C0.848098 26.1211 1.32892 28.8014 2.04052 31.4211L0.994659 31.5967C0.819224 31.6273 0.662802 31.7285 0.559804 31.8779C0.456806 32.0274 0.415669 32.2128 0.445442 32.3934C0.475215 32.5741 0.573459 32.7352 0.718563 32.8412C0.863666 32.9473 1.04374 32.9897 1.21918 32.959L2.43698 32.7424C2.75161 33.7194 3.13145 34.6728 3.57378 35.5958L2.53502 36.2148C2.38691 36.3094 2.28036 36.4596 2.23793 36.6336C2.19549 36.8077 2.22052 36.9919 2.30769 37.1473C2.39487 37.3027 2.53736 37.417 2.70498 37.4661C2.8726 37.5152 3.0522 37.4952 3.20574 37.4103L4.23028 36.8001C4.59276 37.4095 5.0141 37.9797 5.48787 38.5019C7.94336 41.1592 11.314 42.5479 15.5002 42.6313C19.3469 42.703 23.1395 41.6831 25.6618 40.9075C35.6984 37.8229 41.3298 33.196 42.3998 27.1527C42.5146 26.4569 42.5622 25.7511 42.5419 25.0456L43.6219 24.9841C43.7099 24.979 43.796 24.9561 43.8754 24.9168C43.9548 24.8774 44.0259 24.8223 44.0846 24.7546C44.1433 24.6869 44.1885 24.608 44.2176 24.5224C44.2467 24.4367 44.2592 24.346 44.2542 24.2554C44.2493 24.1648 44.227 24.0761 44.1888 23.9943C44.1506 23.9126 44.0971 23.8394 44.0313 23.7789C43.9656 23.7184 43.889 23.6719 43.8058 23.6419C43.7226 23.6119 43.6345 23.5991 43.5466 23.6042L42.451 23.6672C42.3315 22.6304 42.1416 21.6036 41.8826 20.5943L42.9355 20.1377ZM39.4768 20.1845C39.3197 20.2546 39.1945 20.3838 39.1269 20.5458C39.0593 20.7078 39.0545 20.8903 39.1133 21.0559C39.1722 21.2214 39.2903 21.3576 39.4435 21.4363C39.5967 21.5151 39.7733 21.5306 39.9372 21.4795C39.9634 21.4717 39.9891 21.462 40.0139 21.4503L40.6506 21.1576C40.8594 22.009 41.016 22.8731 41.1195 23.7447L40.4942 23.7798C40.3165 23.7901 40.1501 23.8727 40.0315 24.0093C39.9129 24.146 39.8519 24.3256 39.8619 24.5085C39.8719 24.6915 39.952 24.8629 40.0848 24.985C40.2175 25.1072 40.3919 25.17 40.5696 25.1597L41.2118 25.1231C41.229 25.7203 41.189 26.3178 41.0925 26.9069C40.1219 32.3942 34.8046 36.6582 25.2909 39.5833C22.8539 40.331 19.1948 41.3187 15.5372 41.2485C11.7218 41.1724 8.67233 39.9315 6.47262 37.5493C6.07224 37.1065 5.7157 36.6236 5.40829 36.108L5.88006 35.827C6.0342 35.7354 6.1467 35.5845 6.1928 35.4076C6.2389 35.2306 6.21484 35.0419 6.1259 34.8832C6.03695 34.7245 5.89042 34.6086 5.71854 34.5612C5.54665 34.5137 5.36349 34.5385 5.20935 34.6301L4.75605 34.9008C4.38616 34.124 4.06298 33.3245 3.78835 32.5068L4.36954 32.4044C4.39652 32.4003 4.42314 32.394 4.44911 32.3854C4.61172 32.334 4.74932 32.221 4.83405 32.0691C4.91878 31.9173 4.94432 31.7379 4.90549 31.5674C4.86667 31.3969 4.76638 31.2479 4.62493 31.1507C4.48348 31.0534 4.31143 31.0151 4.1436 31.0436L3.37199 31.1782C2.65217 28.5944 2.17162 25.9462 1.93678 23.2691C1.38117 17.4511 1.81031 11.9814 2.97553 9.96059C3.0852 9.74545 3.27326 9.5839 3.49846 9.51137C3.56485 9.49196 3.6329 9.47922 3.70167 9.47332C4.31838 9.41625 5.83317 9.76598 9.00911 12.7247C10.1467 13.7891 11.2309 14.9124 12.2575 16.0903L13.6785 19.428C13.7815 19.6786 13.9706 19.8812 14.2096 19.9971C14.4487 20.1129 14.7208 20.1339 14.9739 20.056C15.227 19.978 15.4433 19.8066 15.5813 19.5747C15.7194 19.3427 15.7694 19.0664 15.7219 18.7988L15.2445 15.884L17.2538 15.2665L18.6748 18.613C18.777 18.8627 18.9648 19.0651 19.2025 19.1815C19.4402 19.2979 19.7111 19.3203 19.9638 19.2444C20.2164 19.1685 20.4332 18.9997 20.5728 18.7699C20.7124 18.5402 20.7652 18.2656 20.721 17.9984L20.1313 14.3958L22.2372 13.749L23.3896 16.4561C23.49 16.7111 23.6791 16.9184 23.92 17.0374C24.161 17.1564 24.4363 17.1785 24.6923 17.0994C24.9482 17.0204 25.1663 16.8458 25.3038 16.6099C25.4413 16.374 25.4884 16.0937 25.4359 15.824L24.8462 12.2214C24.8462 12.2214 25.2583 9.58746 25.7684 7.57983C26.854 3.30559 27.9312 2.16569 28.4768 1.86279C28.6081 1.7854 28.7568 1.74469 28.9081 1.74469C29.0594 1.74469 29.2081 1.7854 29.3394 1.86279C31.3913 2.88709 34.661 7.22718 37.297 12.3984C38.5215 14.7675 39.5281 17.2493 40.3038 19.8114L39.4768 20.1845Z" fill="black"/>
<path d="M39.4768 20.1845C39.3197 20.2546 39.1945 20.3838 39.1269 20.5458C39.0593 20.7078 39.0545 20.8903 39.1133 21.0559C39.1722 21.2214 39.2903 21.3576 39.4435 21.4363C39.5967 21.5151 39.7733 21.5306 39.9372 21.4795C39.9634 21.4717 39.9891 21.462 40.0139 21.4503L40.6506 21.1576C40.8594 22.009 41.016 22.8731 41.1195 23.7447L40.4942 23.7798C40.3165 23.7901 40.1501 23.8727 40.0315 24.0093C39.9129 24.146 39.8519 24.3256 39.8619 24.5085C39.8719 24.6915 39.952 24.8629 40.0848 24.985C40.2175 25.1072 40.3919 25.17 40.5696 25.1597L41.2118 25.1231C41.229 25.7203 41.189 26.3178 41.0925 26.9069C40.1219 32.3942 34.8046 36.6582 25.2909 39.5833C22.8539 40.331 19.1948 41.3187 15.5372 41.2485C11.7218 41.1724 8.67233 39.9315 6.47262 37.5493C6.07224 37.1065 5.7157 36.6236 5.40829 36.108L5.88006 35.827C6.0342 35.7354 6.1467 35.5845 6.1928 35.4076C6.2389 35.2306 6.21484 35.0419 6.1259 34.8832C6.03695 34.7245 5.89042 34.6086 5.71854 34.5612C5.54665 34.5137 5.36349 34.5385 5.20935 34.6301L4.75605 34.9008C4.38616 34.124 4.06298 33.3245 3.78835 32.5068L4.36954 32.4044C4.39652 32.4003 4.42314 32.394 4.44911 32.3854C4.61172 32.334 4.74932 32.221 4.83405 32.0691C4.91878 31.9173 4.94432 31.7379 4.90549 31.5674C4.86667 31.3969 4.76638 31.2479 4.62493 31.1507C4.48348 31.0534 4.31143 31.0151 4.1436 31.0436L3.37199 31.1782C2.65217 28.5944 2.17162 25.9462 1.93678 23.2691C1.38117 17.4511 1.81031 11.9814 2.97553 9.96059C3.0852 9.74545 3.27326 9.5839 3.49846 9.51137C3.56485 9.49196 3.6329 9.47922 3.70167 9.47332C4.31838 9.41625 5.83317 9.76598 9.00911 12.7247C10.1467 13.7891 11.2309 14.9124 12.2575 16.0903L13.6785 19.428C13.7815 19.6786 13.9706 19.8812 14.2096 19.9971C14.4487 20.1129 14.7208 20.1339 14.9739 20.056C15.227 19.978 15.4433 19.8066 15.5813 19.5747C15.7194 19.3427 15.7694 19.0664 15.7219 18.7988L15.2445 15.884L17.2538 15.2665L18.6748 18.613C18.777 18.8627 18.9648 19.0651 19.2025 19.1815C19.4402 19.2979 19.7111 19.3203 19.9638 19.2444C20.2164 19.1685 20.4332 18.9997 20.5728 18.7699C20.7124 18.5402 20.7652 18.2656 20.721 17.9984L20.1313 14.3958L22.2372 13.749L23.3896 16.4561C23.49 16.7111 23.6791 16.9184 23.92 17.0374C24.161 17.1564 24.4363 17.1785 24.6923 17.0994C24.9482 17.0204 25.1663 16.8458 25.3038 16.6099C25.4413 16.374 25.4884 16.0937 25.4359 15.824L24.8462 12.2214C24.8462 12.2214 25.2583 9.58746 25.7684 7.57983C26.854 3.30559 27.9312 2.16569 28.4768 1.86279C28.6081 1.7854 28.7568 1.74469 28.9081 1.74469C29.0594 1.74469 29.2081 1.7854 29.3394 1.86279C31.3913 2.88709 34.661 7.22718 37.297 12.3984C38.5215 14.7675 39.5281 17.2493 40.3038 19.8114L39.4768 20.1845Z" fill="#FFD700"/>
<path d="M25.5481 27.0956C25.4598 27.0926 25.3718 27.1079 25.2893 27.1406C25.2068 27.1733 25.1315 27.2227 25.0678 27.2858C25.0049 27.3495 24.9548 27.4253 24.9204 27.5089C24.886 27.5925 24.868 27.6823 24.8675 27.7731C24.8391 28.059 24.7519 28.3354 24.6117 28.5838C24.3857 28.9876 24.0491 29.3138 23.644 29.5217L22.7587 26.4854C23.6113 25.9513 24.1797 24.9621 24.1996 24.1442C24.2181 23.1462 22.7544 23.1199 21.2155 23.5867C19.6765 24.0535 18.4715 24.9036 19.0186 25.7362C19.4606 26.402 20.4524 26.9068 21.4343 26.8805H21.4627L22.3423 29.9154C21.0379 30.0368 20.4212 29.1837 20.3956 29.1457C20.3478 29.0664 20.2848 28.998 20.2106 28.9445C20.1364 28.891 20.0524 28.8535 19.9638 28.8344C19.8751 28.8152 19.7836 28.8147 19.6948 28.833C19.6059 28.8512 19.5216 28.8878 19.4469 28.9405C19.3721 28.9932 19.3086 29.061 19.2599 29.1397C19.2113 29.2184 19.1787 29.3065 19.1641 29.3986C19.1494 29.4906 19.153 29.5848 19.1747 29.6754C19.1963 29.7659 19.2356 29.8511 19.29 29.9256C19.344 30.0046 20.6656 31.9376 23.391 31.0962C26.1165 30.2548 26.1961 27.899 26.1961 27.7995C26.1988 27.6165 26.1311 27.4398 26.0079 27.308C25.8847 27.1762 25.7158 27.0998 25.5382 27.0956H25.5481Z" fill="black"/>
<path d="M28.1572 19.7367C27.4055 19.9679 27.0204 20.9439 27.3046 21.9199C27.5888 22.8959 28.4257 23.4973 29.1775 23.2661C29.9292 23.0349 30.3143 22.0589 30.0301 21.0829C29.7459 20.1069 28.9103 19.5055 28.1572 19.7367Z" fill="black"/>
<path d="M10.1559 24.9724C10.0009 25.0556 9.88364 25.1979 9.82901 25.3688C9.77438 25.5398 9.78672 25.726 9.8634 25.8877C9.94008 26.0494 10.075 26.174 10.2396 26.2348C10.4041 26.2956 10.5851 26.2878 10.7442 26.2132C10.8152 26.1781 12.1865 25.5152 13.4071 26.1006C12.8692 26.3751 12.3801 26.7412 11.9605 27.1834C11.8982 27.2492 11.8492 27.3272 11.8165 27.4127C11.7837 27.4982 11.7679 27.5896 11.7698 27.6816C11.7717 27.7735 11.7914 27.8641 11.8277 27.9481C11.8641 28.0321 11.9163 28.1078 11.9813 28.1708C12.0463 28.2337 12.1229 28.2828 12.2066 28.3149C12.2902 28.3471 12.3792 28.3618 12.4684 28.3582C12.5577 28.3545 12.6453 28.3326 12.7262 28.2937C12.8071 28.2548 12.8796 28.1997 12.9396 28.1316C13.6714 27.3312 14.9006 26.961 14.912 26.961H14.9205C15.028 26.9279 15.1257 26.8676 15.2046 26.7856C15.2836 26.7036 15.3414 26.6025 15.3726 26.4916C15.4039 26.3807 15.4076 26.2634 15.3835 26.1506C15.3594 26.0379 15.3081 25.9331 15.2345 25.8459C13.6288 23.9437 11.2103 24.447 10.1545 24.9811L10.1559 24.9724Z" fill="black"/>
</g>
<path d="M57.336 25.272C57.336 27.1493 57.5173 28.4933 57.88 29.304C58.264 30.0933 58.8827 30.488 59.736 30.488C60.5893 30.488 61.7947 30.2853 63.352 29.88L64.184 34.392C62.4987 35.0107 60.8027 35.32 59.096 35.32C56.536 35.32 54.6693 34.4773 53.496 32.792C52.344 31.0853 51.768 28.5573 51.768 25.208C51.768 21.8373 52.376 19.2667 53.592 17.496C54.808 15.704 56.792 14.808 59.544 14.808C61.1653 14.808 62.712 15.1493 64.184 15.832L63.32 20.792C61.656 20.2373 60.4933 19.96 59.832 19.96C58.8933 19.96 58.2427 20.376 57.88 21.208C57.5173 22.0187 57.336 23.3733 57.336 25.272ZM76.637 23.672L76.477 30.296C76.477 30.7013 76.573 30.9787 76.765 31.128C76.9783 31.256 77.3303 31.32 77.821 31.32L77.341 35.192C76.1037 35.2773 75.421 35.32 75.293 35.32C73.7143 35.32 72.7117 34.776 72.285 33.688H72.125C71.3357 34.776 70.1197 35.32 68.477 35.32C67.2183 35.32 66.2477 34.9147 65.565 34.104C64.9037 33.2933 64.573 32.184 64.573 30.776C64.573 29.0053 65.117 27.7787 66.205 27.096C67.3143 26.4133 69.053 25.9653 71.421 25.752V24.984C71.421 24.3867 71.1223 24.088 70.525 24.088C69.501 24.088 67.901 24.3973 65.725 25.016L64.925 20.344C67.6557 19.64 69.9277 19.288 71.741 19.288C73.5543 19.288 74.8237 19.64 75.549 20.344C76.2743 21.048 76.637 22.1573 76.637 23.672ZM70.461 31.576C71.2503 31.576 71.645 31.16 71.645 30.328V28.76C70.8557 28.8667 70.2903 29.0373 69.949 29.272C69.629 29.4853 69.469 29.8587 69.469 30.392C69.469 31.1813 69.7997 31.576 70.461 31.576ZM87.6625 35.032C86.0838 35.224 84.7078 35.32 83.5345 35.32C82.3825 35.32 81.4758 35.0213 80.8145 34.424C80.1745 33.8053 79.8545 32.7493 79.8545 31.256V23.832H78.3185V19.864H80.1105L80.3985 16.92H85.2305V19.864H88.0785L87.8545 23.832H85.1985V30.2C85.1985 30.648 85.4118 30.872 85.8385 30.872C85.8812 30.872 86.5425 30.84 87.8225 30.776L87.6625 35.032ZM88.7308 21.112C88.7308 19.2133 89.2854 17.688 90.3948 16.536C91.5041 15.384 93.0188 14.808 94.9388 14.808C96.8801 14.808 98.8641 15 100.891 15.384L100.251 20.504C98.1388 20.0133 96.6881 19.768 95.8988 19.768C94.8961 19.768 94.3948 20.1733 94.3948 20.984C94.3948 21.304 94.6294 21.6133 95.0988 21.912C95.5894 22.2107 96.1761 22.5307 96.8588 22.872C97.5414 23.192 98.2241 23.5867 98.9068 24.056C99.5894 24.504 100.165 25.1547 100.635 26.008C101.125 26.8613 101.371 27.8427 101.371 28.952C101.371 30.9787 100.827 32.5467 99.7388 33.656C98.6508 34.7653 97.1041 35.32 95.0988 35.32C93.1148 35.32 91.1734 35.0107 89.2747 34.392L89.6268 29.624C91.9094 30.2853 93.4988 30.616 94.3948 30.616C95.2908 30.616 95.7388 30.2213 95.7388 29.432C95.7388 29.0267 95.4934 28.6533 95.0028 28.312C94.5334 27.9707 93.9574 27.6293 93.2748 27.288C92.5921 26.9467 91.8988 26.552 91.1948 26.104C90.5121 25.656 89.9254 25.0053 89.4348 24.152C88.9654 23.2987 88.7308 22.2853 88.7308 21.112ZM108.211 34.648V39.384H102.835V19.672H107.251L107.571 20.632H107.731C108.328 19.7573 109.502 19.32 111.251 19.32C113 19.32 114.227 19.928 114.931 21.144C115.656 22.36 116.019 24.3547 116.019 27.128C116.019 29.9013 115.635 31.9707 114.867 33.336C114.12 34.68 112.734 35.352 110.707 35.352C109.768 35.352 108.979 35.1173 108.339 34.648H108.211ZM110.451 30.2C110.536 29.816 110.59 29.4427 110.611 29.08C110.632 28.7173 110.643 28.0347 110.643 27.032C110.643 26.008 110.568 25.2293 110.419 24.696C110.27 24.1413 109.96 23.864 109.491 23.864C109.043 23.864 108.595 23.992 108.147 24.248V30.872C108.552 31.064 108.936 31.16 109.299 31.16C109.683 31.16 109.95 31.096 110.099 30.968C110.27 30.8187 110.387 30.5627 110.451 30.2ZM129.293 23.672L129.133 30.296C129.133 30.7013 129.229 30.9787 129.421 31.128C129.635 31.256 129.987 31.32 130.477 31.32L129.997 35.192C128.76 35.2773 128.077 35.32 127.949 35.32C126.371 35.32 125.368 34.776 124.941 33.688H124.781C123.992 34.776 122.776 35.32 121.133 35.32C119.875 35.32 118.904 34.9147 118.221 34.104C117.56 33.2933 117.229 32.184 117.229 30.776C117.229 29.0053 117.773 27.7787 118.861 27.096C119.971 26.4133 121.709 25.9653 124.077 25.752V24.984C124.077 24.3867 123.779 24.088 123.181 24.088C122.157 24.088 120.557 24.3973 118.381 25.016L117.581 20.344C120.312 19.64 122.584 19.288 124.397 19.288C126.211 19.288 127.48 19.64 128.205 20.344C128.931 21.048 129.293 22.1573 129.293 23.672ZM123.117 31.576C123.907 31.576 124.301 31.16 124.301 30.328V28.76C123.512 28.8667 122.947 29.0373 122.605 29.272C122.285 29.4853 122.125 29.8587 122.125 30.392C122.125 31.1813 122.456 31.576 123.117 31.576ZM138.367 23.96C137.748 23.96 137.332 24.248 137.119 24.824C136.905 25.3787 136.799 26.2533 136.799 27.448C136.799 28.6427 136.895 29.5067 137.087 30.04C137.3 30.5733 137.727 30.84 138.367 30.84C139.028 30.84 139.881 30.7227 140.927 30.488L141.503 34.584C140.031 35.0747 138.719 35.32 137.567 35.32C135.54 35.32 134.004 34.6373 132.959 33.272C131.935 31.9067 131.423 29.9973 131.423 27.544C131.423 25.0907 131.956 23.1067 133.023 21.592C134.089 20.056 135.636 19.288 137.663 19.288C139.177 19.288 140.543 19.544 141.759 20.056L141.183 24.76C139.945 24.2267 139.007 23.96 138.367 23.96ZM149.11 23.864C148.555 23.864 148.193 24.056 148.022 24.44C147.851 24.8027 147.766 25.368 147.766 26.136H150.55V25.368C150.55 24.3653 150.07 23.864 149.11 23.864ZM149.238 19.288C151.435 19.288 153.003 19.8213 153.942 20.888C154.902 21.9333 155.382 23.4373 155.382 25.4C155.382 25.656 155.307 26.808 155.158 28.856H147.862C147.862 30.456 148.598 31.256 150.07 31.256C150.774 31.256 152.15 31.0107 154.198 30.52L154.646 34.488C152.854 35.0427 151.062 35.32 149.27 35.32C147.073 35.32 145.387 34.6053 144.214 33.176C143.041 31.7253 142.454 29.7627 142.454 27.288C142.454 21.9547 144.715 19.288 149.238 19.288Z" fill="#C4DFE3"/>
<defs>
<clipPath id="clip0_78_581">
<rect width="44.6337" height="43" fill="white"/>
</clipPath>
</defs>
</svg>
